<svg width="256" height="256" viewBox="0 0 256 256" xmlns="http://www.w3.org/2000/svg"><path d="M97.8523023,99.7826087 C102.428034,99.7826087 106.58384,98.2318841 110.319722,95.1304348 C114.055604,92.0289855 117.024037,87.884058 119.225022,82.6956522 C121.426006,77.5072464 122.526499,71.7536232 122.526499,65.4347826 C122.526499,59.057971 121.426006,53.2608696 119.225022,48.0434783 C117.024037,42.826087 114.055604,38.6811594 110.319722,35.6086957 C106.58384,32.5362319 102.428034,31 97.8523023,31 C93.2186504,31 89.0483637,32.5362319 85.3414422,35.6086957 C81.6345207,38.6811594 78.6805676,42.826087 76.479583,48.0434783 C74.2785983,53.2608696 73.178106,59.057971 73.178106,65.4347826 C73.178106,71.7536232 74.2785983,77.5072464 76.479583,82.6956522 C78.6805676,87.884058 81.6345207,92.0289855 85.3414422,95.1304348 C89.0483637,98.2318841 93.2186504,99.7826087 97.8523023,99.7826087 Z M158.147698,99.7826087 C162.723429,99.7826087 166.879235,98.2318841 170.615117,95.1304348 C174.350999,92.0289855 177.319432,87.884058 179.520417,82.6956522 C181.721402,77.5072464 182.821894,71.7536232 182.821894,65.4347826 C182.821894,59.057971 181.721402,53.2608696 179.520417,48.0434783 C177.319432,42.826087 174.350999,38.6811594 170.615117,35.6086957 C166.879235,32.5362319 162.723429,31 158.147698,31 C153.571966,31 149.40168,32.5362319 145.636838,35.6086957 C141.871995,38.6811594 138.903562,42.826087 136.731538,48.0434783 C134.559513,53.2608696 133.473501,59.057971 133.473501,65.4347826 C133.473501,71.7536232 134.559513,77.5072464 136.731538,82.6956522 C138.903562,87.884058 141.871995,92.0289855 145.636838,95.1304348 C149.40168,98.2318841 153.571966,99.7826087 158.147698,99.7826087 Z M52.5873154,154.130435 C57.1630466,154.130435 61.3333333,152.57971 65.0981755,149.478261 C68.8630177,146.376812 71.8314509,142.217391 74.0034752,137 C76.1754996,131.782609 77.2615117,125.985507 77.2615117,119.608696 C77.2615117,113.289855 76.1754996,107.536232 74.0034752,102.347826 C71.8314509,97.1594203 68.8630177,93.0144928 65.0981755,89.9130435 C61.3333333,86.8115942 57.1630466,85.2608696 52.5873154,85.2608696 C47.9536635,85.2608696 43.7833768,86.8115942 40.0764553,89.9130435 C36.3695337,93.0144928 33.4300608,97.1594203 31.2580365,102.347826 C29.0860122,107.536232 28,113.289855 28,119.608696 C28,125.985507 29.0860122,131.782609 31.2580365,137 C33.4300608,142.217391 36.3695337,146.376812 40.0764553,149.478261 C43.7833768,152.57971 47.9536635,154.130435 52.5873154,154.130435 Z M203.412685,154.130435 C208.046337,154.130435 212.216623,152.57971 215.923545,149.478261 C219.630466,146.376812 222.569939,142.217391 224.741964,137 C226.913988,131.782609 228,125.985507 228,119.608696 C228,113.289855 226.913988,107.536232 224.741964,102.347826 C222.569939,97.1594203 219.630466,93.0144928 215.923545,89.9130435 C212.216623,86.8115942 208.046337,85.2608696 203.412685,85.2608696 C198.836953,85.2608696 194.666667,86.8115942 190.901825,89.9130435 C187.136982,93.0144928 184.168549,97.1594203 181.996525,102.347826 C179.8245,107.536232 178.738488,113.289855 178.738488,119.608696 C178.738488,125.985507 179.8245,131.782609 181.996525,137 C184.168549,142.217391 187.136982,146.376812 190.901825,149.478261 C194.666667,152.57971 198.836953,154.130435 203.412685,154.130435 Z M165.011295,225 C171.556328,225 177.319432,223.536232 182.300608,220.608696 C187.281784,217.681159 191.162467,213.623188 193.942659,208.434783 C196.72285,203.246377 198.112945,197.231884 198.112945,190.391304 C198.112945,184.942029 197.171735,180.26087 195.289314,176.347826 C193.406893,172.434783 191.017666,169.043478 188.121633,166.173913 C185.225601,163.304348 182.329568,160.681159 179.433536,158.304348 C177.000869,156.333333 174.698523,154.391304 172.526499,152.478261 C170.354474,150.565217 168.486533,148.42029 166.922676,146.043478 C165.706342,144.246377 164.547929,142.318841 163.447437,140.26087 C162.346945,138.202899 161.217492,135.985507 160.059079,133.608696 C157.916015,129.028986 155.65711,124.608696 153.282363,120.347826 C150.907617,116.086957 147.794382,112.594203 143.942659,109.869565 C140.090935,107.144928 134.776716,105.782609 128,105.782609 C121.223284,105.782609 115.909065,107.144928 112.057341,109.869565 C108.205618,112.594203 105.092383,116.086957 102.717637,120.347826 C100.34289,124.608696 98.0839849,129.028986 95.9409209,133.608696 C94.782508,135.985507 93.6530553,138.188406 92.552563,140.217391 C91.4520707,142.246377 90.322618,144.188406 89.164205,146.043478 C87.6003475,148.362319 85.7179264,150.492754 83.5169418,152.434783 C81.3159571,154.376812 78.9991312,156.333333 76.5664639,158.304348 C73.6704315,160.681159 70.7743991,163.304348 67.8783666,166.173913 C64.9823342,169.043478 62.5931074,172.434783 60.7106864,176.347826 C58.8282653,180.26087 57.8870547,184.942029 57.8870547,190.391304 C57.8870547,197.231884 59.2771503,203.246377 62.0573414,208.434783 C64.8375326,213.623188 68.718216,217.681159 73.6993918,220.608696 C78.6805676,223.536232 84.4436722,225 90.9887055,225 C95.6223574,225 99.7347234,224.492754 103.325804,223.478261 C106.916884,222.463768 110.247321,221.434783 113.317116,220.391304 C115.749783,219.57971 118.124529,218.869565 120.441355,218.26087 C122.758181,217.652174 125.27773,217.347826 128,217.347826 C130.72227,217.347826 133.227339,217.652174 135.515204,218.26087 C137.80307,218.869565 140.192297,219.57971 142.682884,220.391304 C145.694758,221.434783 148.996235,222.463768 152.587315,223.478261 C156.178396,224.492754 160.319722,225 165.011295,225 Z" fill="#F25450"/></svg>